<?xml version="1.0" encoding="UTF-8"?>
<svg width="5153px" height="1175px" viewBox="0 0 5153 1175" version="1.1" xmlns="http://www.w3.org/2000/svg" xmlns:xlink="http://www.w3.org/1999/xlink">
    <title>编组 3</title>
    <g id="页面-1" stroke="none" stroke-width="1" fill="none" fill-rule="evenodd">
        <g id="编组-3">
            <g id="编组-2">
                <rect id="矩形" x="0" y="0" width="5153" height="1175"></rect>
            </g>
            <g id="编组" transform="translate(1636.000000, 338.000000)" fill="#333333" fill-rule="nonzero">
                <path d="M433.239156,19.4274731 C441.293233,15.7010537 458.859792,8.89788665 469.738708,5.45340029 C478.502279,2.68310165 490.353466,-1.2394451 494.413351,0.37860543 C496.200226,1.08956703 501.692239,3.51664283 499.484923,22.2468036 C499.484923,22.2468036 498.76229,37.7653791 494.820653,41.0137382 C491.614789,43.6614572 488.224982,45.3653135 483.022022,44.4214506 C478.068699,43.5143617 468.030665,39.6531048 458.544461,34.3086348 C447.139993,27.8854645 433.239156,19.4274731 433.239156,19.4274731 L433.239156,19.4274731 Z M264.786761,111.546032 C273.300695,87.7165604 306.489272,79.7611453 313.45283,78.7927665 C320.403248,77.8121298 335.276356,77.2114899 343.093935,79.3198587 C355.615199,82.6907974 385.019806,100.219678 391.011093,103.823518 C397.449099,107.684775 456.271451,147.498624 468.74016,128.180082 C468.74016,128.180082 470.224843,137.447098 469.239434,146.052185 C468.254025,154.743078 468.109498,166.731361 455.759038,175.728703 C443.408578,184.726045 438.245034,186.405385 420.468255,181.612523 C402.691475,176.819661 394.085569,171.78164 372.590513,158.665625 C351.108595,145.549609 317.56527,127.064607 308.867393,122.038844 C284.127056,107.746065 264.786761,111.546032 264.786761,111.546032 L264.786761,111.546032 Z M350.110047,55.1839383 C356.259,37.9615065 380.250426,32.2125239 385.269443,31.5138202 C390.28846,30.8028586 401.035988,30.3738301 406.685666,31.893817 C415.725152,34.3331507 428.798246,44.311129 433.055213,46.9956219 C437.31218,49.6923728 480.210322,78.5598653 489.210391,64.6103084 C489.210391,64.6103084 490.287772,71.3031538 489.565138,77.5301968 C488.842505,83.8062716 488.172427,93.3797372 479.25119,99.8887133 C470.329953,106.397689 467.163506,106.679622 454.32691,103.222878 C441.477176,99.7538757 435.249391,96.113262 419.732482,86.63786 C404.202436,77.162458 388.238809,66.3999704 381.945329,62.7470987 C364.089717,52.4381556 350.110047,55.1839383 350.110047,55.1839383 L350.110047,55.1839383 Z M376.374483,307.305631 C357.113021,301.397295 333.397509,287.484512 319.575505,279.100068 C307.185628,271.585939 295.859993,263.875683 270.686076,252.622877 C247.903419,242.448772 235.382154,239.139123 220.509047,237.043012 C205.714772,234.934643 186.006591,236.099149 186.006591,236.099149 C186.006591,236.099149 212.533803,211.901939 261.830534,219.060587 C286.46576,222.639911 311.981286,240.009438 344.907087,257.268644 C365.521845,268.067905 380.867949,273.498181 398.697284,276.905893 C405.963033,278.291043 416.907643,276.930409 424.882887,271.855614 C438.008536,264.267938 460.278781,236.123665 446.364805,199.607206 C446.364805,199.607206 434.119455,226.807616 391.917669,205.944571 C368.333546,194.287252 330.585809,172.811309 308.709728,159.47465 C286.833646,146.150249 257.126848,132.298756 237.05078,125.703974 C214.08418,118.16533 182.43284,114.071171 159.321713,121.376915 C136.433945,128.60911 112.810405,137.287745 95.9007855,157.341765 C74.5108394,182.678966 69.0451037,207.158109 61.8450482,244.74101 C54.6449926,282.299395 44.0551298,355.822631 36.6974088,381.368216 C24.6754182,423.167855 17.2125868,438.441272 4.79643259,465.494586 C-1.58901816,479.382853 -5.04451929,497.4756 17.3702523,499.583969 C42.9120553,501.974271 58.888821,493.430474 68.8217444,490.084051 C77.7955363,487.044077 111.509665,483.90604 137.195995,484.678291 C211.981974,486.884724 263.039302,486.566017 322.058736,451.692125 C378.463551,418.362735 403.414108,329.786727 407.18494,314.623632 L407.855018,310.725601 C401.522123,311.105598 391.392118,311.951397 376.374483,307.305631 L376.374483,307.305631 Z" id="形状"></path>
                <g id="nauti" transform="translate(600.000000, 28.000000)" fill-opacity="0.9">
                    <path d="M184.479371,438 L184.479371,275.258964 C184.479371,263.85923 181.237721,255.112882 174.75442,249.01992 C168.27112,242.926959 160.117878,239.880478 150.294695,239.880478 C143.614931,239.880478 137.62279,241.256308 132.318271,244.007968 C127.013752,246.759628 122.888016,250.788845 119.941061,256.095618 C116.994106,261.40239 115.520629,267.790173 115.520629,275.258964 L70.7269155,255.211155 C70.7269155,231.625498 75.9332024,211.381142 86.345776,194.478088 C96.7583497,177.575033 111.100196,164.602922 129.371316,155.561753 C147.642436,146.520584 168.369352,142 191.552063,142 C212.37721,142 230.943026,146.618858 247.249509,155.856574 C263.555992,165.09429 276.424361,177.673307 285.854617,193.593625 C295.284872,209.513944 300,227.891102 300,248.7251 L300,438 L184.479371,438 Z M-5.68434189e-14,438 L-5.68434189e-14,147.896414 L115.520629,147.896414 L115.520629,438 L-5.68434189e-14,438 Z" id="形状"></path>
                    <path d="M439.589744,444 C412.461538,444 388.478632,437.511719 367.641026,424.535156 C346.803419,411.558594 330.487179,393.764974 318.692308,371.154297 C306.897436,348.54362 301,322.492188 301,293 C301,263.507812 306.897436,237.358073 318.692308,214.550781 C330.487179,191.74349 346.803419,173.94987 367.641026,161.169922 C388.478632,148.389974 412.461538,142 439.589744,142 C456.495726,142 472.123932,144.850911 486.474359,150.552734 C500.824786,156.254557 512.816239,164.217448 522.448718,174.441406 C532.081197,184.665365 538.273504,196.46224 541.025641,209.832031 L541.025641,376.167969 C538.273504,389.53776 532.081197,401.334635 522.448718,411.558594 C512.816239,421.782552 500.824786,429.745443 486.474359,435.447266 C472.123932,441.149089 456.495726,444 439.589744,444 Z M465.538462,342.546875 C480.08547,342.546875 491.782051,337.926432 500.628205,328.685547 C509.474359,319.444661 513.897436,307.549479 513.897436,293 C513.897436,283.169271 511.931624,274.616536 508,267.341797 C504.068376,260.067057 498.465812,254.266927 491.192308,249.941406 C483.918803,245.615885 475.564103,243.453125 466.128205,243.453125 C456.692308,243.453125 448.337607,245.615885 441.064103,249.941406 C433.790598,254.266927 427.991453,260.165365 423.666667,267.636719 C419.34188,275.108073 417.179487,283.5625 417.179487,293 C417.179487,302.4375 419.24359,310.891927 423.371795,318.363281 C427.5,325.834635 433.299145,331.733073 440.769231,336.058594 C448.239316,340.384115 456.495726,342.546875 465.538462,342.546875 Z M510.358974,438.101562 L510.358974,360.242188 L526.282051,289.460938 L510.358974,219.269531 L510.358974,147.898437 L623,147.898437 L623,438.101562 L510.358974,438.101562 Z" id="形状"></path>
                    <path d="M785.795132,445 C757.462475,445 732.376268,439.5 710.536511,428.5 C688.696755,417.5 671.48073,402.178571 658.888438,382.535714 C646.296146,362.892857 640,340.5 640,315.357143 L640,148 L755.691684,148 L755.691684,316.535714 C755.691684,322.428571 756.970588,327.732143 759.528398,332.446429 C762.086207,337.160714 765.627789,340.794643 770.153144,343.348214 C774.678499,345.901786 779.892495,347.178571 785.795132,347.178571 C794.058824,347.178571 801.043611,344.330357 806.749493,338.633929 C812.455375,332.9375 815.308316,325.571429 815.308316,316.535714 L815.308316,148 L931,148 L931,315.357143 C931,340.892857 924.802231,363.383929 912.406694,382.830357 C900.011156,402.276786 882.893509,417.5 861.053753,428.5 C839.213996,439.5 814.127789,445 785.795132,445 Z" id="路径"></path>
                    <path d="M985.810345,438 L985.810345,28 L1101.18966,28 L1101.18966,438 L985.810345,438 Z M924,241.861671 L924,147.337176 L1163,147.337176 L1163,241.861671 L924,241.861671 Z" id="形状"></path>
                    <path d="M1163.18,438 L1163.18,147.574124 L1278.82,147.574124 L1278.82,438 L1163.18,438 Z M1221,120.420485 C1204.08667,120.420485 1190.025,114.615903 1178.815,103.006739 C1167.605,91.3975741 1162,77.1320755 1162,60.2102426 C1162,43.2884097 1167.605,29.0229111 1178.815,17.4137466 C1190.025,5.80458221 1204.08667,0 1221,0 C1238.30667,0 1252.46667,5.80458221 1263.48,17.4137466 C1274.49333,29.0229111 1280,43.2884097 1280,60.2102426 C1280,77.1320755 1274.49333,91.3975741 1263.48,103.006739 C1252.46667,114.615903 1238.30667,120.420485 1221,120.420485 Z" id="形状"></path>
                </g>
            </g>
        </g>
    </g>
</svg>